<?xml version="1.0" encoding="utf-8"?>
<!-- Generator: Adobe Illustrator 16.0.0, SVG Export Plug-In . SVG Version: 6.00 Build 0)  -->
<!DOCTYPE svg PUBLIC "-//W3C//DTD SVG 1.1//EN" "http://www.w3.org/Graphics/SVG/1.1/DTD/svg11.dtd">
<svg version="1.1" id="Calque_1" xmlns="http://www.w3.org/2000/svg" xmlns:xlink="http://www.w3.org/1999/xlink" x="0px" y="0px"
	 width="30px" height="30px" viewBox="0 0 30 30" enable-background="new 0 0 30 30" xml:space="preserve">
<circle fill="#1AAA82" cx="15" cy="15" r="15"/>
<g>
	<path fill="#FFFFFF" d="M9.942,7.452h5.966c0.784,0,1.527,0.076,2.232,0.229c0.704,0.152,1.32,0.407,1.851,0.762
		c0.529,0.356,0.95,0.835,1.263,1.437c0.312,0.603,0.469,1.354,0.469,2.254c0,1.089-0.283,2.014-0.85,2.776
		s-1.394,1.245-2.482,1.448l3.92,6.511h-4.072l-3.223-6.162h-1.677v6.162H9.942V7.452z M13.339,13.833h2.003
		c0.305,0,0.627-0.011,0.968-0.033c0.342-0.022,0.65-0.087,0.926-0.196c0.276-0.109,0.505-0.279,0.687-0.512
		c0.181-0.232,0.271-0.559,0.271-0.979c0-0.392-0.079-0.704-0.239-0.937c-0.16-0.232-0.363-0.41-0.609-0.534
		c-0.247-0.123-0.53-0.207-0.85-0.25c-0.319-0.043-0.631-0.065-0.936-0.065h-2.221V13.833z"/>
</g>
</svg>
